# xmcd CD database file
#
# Track frame offsets:
#	150
#	25904
#	48643
#	74201
#	94147
#	99785
#	122367
#	144789
#	169783
#	189719
#	210225
#	227271
#	255113
#
# Disc length: 4084 seconds
#
# Revision: 0
# Processed by: cddbd v1.5.2PL0 Copyright (c) Steve Scherf et al.
# Submitted via: CDex 1.51
#
DISCID=a00ff20d
DTITLE=Tutu Puoane - SONG
DYEAR=2009
DGENRE=Jazz
TTITLE0=Just About Everything
TTITLE1=That's all
TTITLE2=For The Time Being
TTITLE3=Rejoice
TTITLE4=Prologue to...
TTITLE5=He needs me
TTITLE6=You are my sunshine
TTITLE7=Mango Picker
TTITLE8=Song
TTITLE9=A case of You
TTITLE10=Ke A Go Leboga (I thank you)
TTITLE11=Atonal
TTITLE12=Lakutshoni' Langa
EXTD=YEAR: 2009
EXTT0=
EXTT1=
EXTT2=
EXTT3=
EXTT4=
EXTT5=
EXTT6=
EXTT7=
EXTT8=
EXTT9=
EXTT10=
EXTT11=
EXTT12=
PLAYORDER=
